<svg xmlns="http://www.w3.org/2000/svg" width="204" height="126" viewBox="0 0 204 126" fill="none">
<mask id="mask0_1872_9518" style="mask-type:alpha" maskUnits="userSpaceOnUse" x="0" y="0" width="204" height="126">
<path d="M0 12C0 5.37258 5.09771 0 11.386 0H144.223C177.237 0 204 28.2061 204 63C204 97.7939 177.237 126 144.223 126H3.79535C1.69923 126 0 124.209 0 122V12Z" fill="#094F85"/>
</mask>
<g mask="url(#mask0_1872_9518)">
<rect width="204" height="126" fill="#1B8DC6"/>
<path fill-rule="evenodd" clip-rule="evenodd" d="M173.587 56.5851H170.317C169.891 56.6396 169.497 56.8505 169.203 57.1811L156.737 74.7154C156.652 74.8714 156.495 74.9675 156.325 74.9675C156.155 74.9675 155.998 74.8714 155.913 74.7154L144.4 57.1918C144.103 56.7947 143.647 56.5673 143.169 56.5771H121.06C120.874 56.5749 120.697 56.4948 120.568 56.3544C120.438 56.2139 120.367 56.0248 120.37 55.8286V50.0391C120.38 49.2248 119.765 48.5555 118.995 48.5423H85.1121C81.6831 48.3027 78.2592 49.0843 75.2287 50.7982C73.2678 51.7553 71.9841 53.7996 71.9107 56.0826C71.9107 58.3305 73.619 60.557 77.0432 62.7408C77.9293 63.3146 81.0949 64.953 86.5399 67.6562C89.9539 69.3589 91.8063 70.7354 91.6724 72.1307C91.4677 74.3572 89.5875 75.1163 85.1146 75.1163H64.6858C64.1804 75.1163 63.7837 75.0228 63.7837 74.6138C63.7973 74.3864 63.923 74.1833 64.1147 74.0792C67.8141 71.9975 70.1411 67.9426 70.1797 63.5106C70.1797 56.7588 64.8728 48.5423 43.7466 48.5423H25.3976C25.0239 48.5423 24.6657 48.7006 24.4031 48.9818C24.1405 49.2631 23.9954 49.6439 24.0001 50.0391V76.974C23.9954 77.3692 24.1405 77.75 24.4031 78.0313C24.6657 78.3126 25.0239 78.4709 25.3976 78.4708H91.7456C95.1592 78.664 98.5601 77.8957 101.601 76.2443C103.54 75.2811 104.803 73.2463 104.866 70.9813C104.866 68.7949 103.15 66.5176 99.7337 64.3338C98.8543 63.76 95.6887 62.1153 90.237 59.3996C86.8153 57.6854 85.1045 56.3 85.1045 55.2433C85.1045 52.9954 87.3157 51.9075 91.7406 51.9075H107.267C107.65 51.9132 107.959 52.2402 107.964 52.6452V72.1922C107.964 75.0655 109.733 78.4414 115.083 78.4414H157.765C158.344 78.4596 158.9 78.2038 159.281 77.7438L173.918 57.0796C173.918 57.0796 174.249 56.5877 173.58 56.5877L173.587 56.5851ZM41.0046 75.2182H36.4837C36.2969 75.2183 36.118 75.1391 35.9869 74.9984C35.8558 74.8577 35.7835 74.6673 35.7862 74.4698V52.5146C35.7842 52.3197 35.856 52.132 35.9856 51.9934C36.1152 51.8548 36.2918 51.7768 36.4761 51.7769H41.0046C52.1894 51.7769 58.1255 56.7538 58.1255 63.4949C58.1255 70.2359 52.1313 75.2182 41.0046 75.2182ZM123.776 75.2993H143.487H143.492C143.861 75.2993 143.977 75.0534 143.783 74.7353L133.505 60.2589C133.24 59.944 132.873 59.7464 132.476 59.7056H121.031C120.663 59.7284 120.377 60.0533 120.382 60.4433V72.2201C120.382 74.4573 121.031 75.2993 123.776 75.2993Z" fill="white"/>
</g>
</svg>